0
SECTION
2
HEADER
9
$INSUNITS
70
4
9
$ACADVER
1
AC1014
9
$HANDSEED
5
FFFF
0
ENDSEC
0
SECTION
2
TABLES
0
TABLE
2
VPORT
5
8
100
AcDbSymbolTable
0
ENDTAB
0
TABLE
2
LTYPE
5
5
100
AcDbSymbolTable
0
LTYPE
5
14
100
AcDbSymbolTableRecord
100
AcDbLinetypeTableRecord
2
BYBLOCK
70
0
0
LTYPE
5
15
100
AcDbSymbolTableRecord
100
AcDbLinetypeTableRecord
2
BYLAYER
70
0
0
ENDTAB
0
TABLE
2
LAYER
5
2
100
AcDbSymbolTable
70
2
0
LAYER
5
50
100
AcDbSymbolTableRecord
100
AcDbLayerTableRecord
2
0
70
0
6
CONTINUOUS
0
ENDTAB
0
TABLE
2
STYLE
5
3
100
AcDbSymbolTable
70
1
0
STYLE
5
11
100
AcDbSymbolTableRecord
100
AcDbTextStyleTableRecord
2
STANDARD
70
0
0
ENDTAB
0
TABLE
2
VIEW
5
6
100
AcDbSymbolTable
70
0
0
ENDTAB
0
TABLE
2
UCS
5
7
100
AcDbSymbolTable
70
0
0
ENDTAB
0
TABLE
2
APPID
5
9
100
AcDbSymbolTable
70
2
0
APPID
5
12
100
AcDbSymbolTableRecord
100
AcDbRegAppTableRecord
2
ACAD
70
0
0
ENDTAB
0
TABLE
2
DIMSTYLE
5
A
100
AcDbSymbolTable
70
1
0
ENDTAB
0
TABLE
2
BLOCK_RECORD
5
1
100
AcDbSymbolTable
70
1
0
BLOCK_RECORD
5
1F
100
AcDbSymbolTableRecord
100
AcDbBlockTableRecord
2
*MODEL_SPACE
0
BLOCK_RECORD
5
1B
100
AcDbSymbolTableRecord
100
AcDbBlockTableRecord
2
*PAPER_SPACE
0
ENDTAB
0
ENDSEC
0
SECTION
2
BLOCKS
0
BLOCK
5
20
100
AcDbEntity
100
AcDbBlockBegin
2
*MODEL_SPACE
0
ENDBLK
5
21
100
AcDbEntity
100
AcDbBlockEnd
0
BLOCK
5
1C
100
AcDbEntity
100
AcDbBlockBegin
2
*PAPER_SPACE
0
ENDBLK
5
1D
100
AcDbEntity
100
AcDbBlockEnd
0
ENDSEC
0
SECTION
2
ENTITIES
0
LINE
5
100
100
AcDbEntity
8
0
100
AcDbLine
10
-60
20
-50.000000000000007
30
0
11
-60
21
-29.999999999999993
31
0
0
LINE
5
101
100
AcDbEntity
8
0
100
AcDbLine
10
-60
20
-29.999999999999993
30
0
11
-39.999999999999993
21
-29.999999999999993
31
0
0
LINE
5
102
100
AcDbEntity
8
0
100
AcDbLine
10
-39.999999999999993
20
-29.999999999999993
30
0
11
-39.999999999999993
21
-50.000000000000007
31
0
0
LINE
5
103
100
AcDbEntity
8
0
100
AcDbLine
10
-39.999999999999993
20
-50.000000000000007
30
0
11
-60
21
-50.000000000000007
31
0
0
CIRCLE
5
104
100
AcDbEntity
8
0
100
AcDbCircle
10
-50
20
120
30
0
40
36.716096250385576
210
0
220
0
230
1
0
LWPOLYLINE
5
105
100
AcDbEntity
8
0
100
AcDbPolyline
90
4
70
1
43
0.0
10
-10
20
180
10
-10
20
193.65252001124043
10
-90.824297076484697
20
193.65252001124043
10
-90.824297076484697
20
180
0
ARC
5
106
100
AcDbEntity
8
0
100
AcDbCircle
10
-39.999999999999993
20
-29.999999999999993
30
0
40
9.9999999999999911
210
-0
220
0
230
1
100
AcDbArc
50
0
51
90.000000000000043
0
LINE
5
107
100
AcDbEntity
8
0
100
AcDbLine
10
-40
20
-20
30
0
11
-40
21
42.912392307028057
31
0
0
ARC
5
108
100
AcDbEntity
8
0
100
AcDbCircle
10
-50
20
90
30
0
40
48.137748163444776
210
-0
220
0
230
1
100
AcDbArc
50
-78.010221984180177
51
9.1365462538277011
0
ARC
5
109
100
AcDbEntity
8
0
100
AcDbCircle
10
-50
20
150
30
0
40
70.710678118654812
210
-0
220
0
230
1
100
AcDbArc
50
-47.768061015299814
51
227.76806101529976
0
ARC
5
110
100
AcDbEntity
8
0
100
AcDbCircle
10
-50
20
90
30
0
40
48.137748163444769
210
0
220
0
230
1
100
AcDbArc
50
170.86345374617221
51
258.01022198418013
0
LINE
5
111
100
AcDbEntity
8
0
100
AcDbLine
10
-60
20
42.912392307028057
30
0
11
-60
21
-20
31
0
0
ARC
5
112
100
AcDbEntity
8
0
100
AcDbCircle
10
-60
20
-29.999999999999993
30
0
40
9.9999999999999911
210
0
220
-0
230
1
100
AcDbArc
50
90
51
180
0
SPLINE
5
113
100
AcDbEntity
8
0
100
AcDbSpline
70
4
71
5
72
21
73
15
74
0
42
0.000000001
43
0.0000000001
44
0.0000000001
40
0.51164474576403229
40
0.51164474576403229
40
0.51164474576403229
40
0.51164474576403229
40
0.51164474576403229
40
0.51164474576403229
40
0.54999999999999993
40
0.59999999999999998
40
0.65000000000000002
40
0.70000000000000007
40
0.75000000000000011
40
0.80000000000000016
40
0.8500000000000002
40
0.90000000000000024
40
0.95000000000000029
40
1
40
1
40
1
40
1
40
1
40
1
41
1
41
1
41
1
41
1
41
1
41
1
41
1
41
1
41
1
41
1
41
1
41
1
41
1
41
1
41
1
10
-70
20
-40.000000000000156
30
0
10
-70.00934214591166
20
-39.83180914221748
30
0
10
-70.117313420122983
20
-39.450937320678079
30
0
10
-70.596016010004291
20
-38.878541487367123
30
0
10
-71.855840016466487
20
-38.148704349272194
30
0
10
-74.145595016892415
20
-37.288555924372993
30
0
10
-76.742114324994205
20
-36.418003359691518
30
0
10
-78.912338404584773
20
-35.535774914587314
30
0
10
-80.111341054126058
20
-34.603221438400112
30
0
10
-79.994790814788928
20
-33.595686707735759
30
0
10
-78.377115233748185
20
-32.499676547876533
30
0
10
-75.820453629320227
20
-31.547446141981137
30
0
10
-73.187382313016357
20
-30.79034870472913
30
0
10
-71.115252001335961
20
-30.266616332846773
30
0
10
-69.999999999999986
20
-30
30
0
0
LINE
5
114
100
AcDbEntity
8
0
100
AcDbLine
10
-70
20
-40.000000000000156
30
0
11
-69.999999999999986
21
-40.105041475128296
31
0
0
SPLINE
5
115
100
AcDbEntity
8
0
100
AcDbSpline
70
4
71
5
72
22
73
16
74
0
42
0.000000001
43
0.0000000001
44
0.0000000001
40
0
40
0
40
0
40
0
40
0
40
0
40
0.050000000000000003
40
0.10000000000000001
40
0.15000000000000002
40
0.20000000000000001
40
0.25
40
0.29999999999999999
40
0.34999999999999998
40
0.39999999999999997
40
0.44999999999999996
40
0.49999999999999994
40
0.5068739861242052
40
0.5068739861242052
40
0.5068739861242052
40
0.5068739861242052
40
0.5068739861242052
40
0.5068739861242052
41
1
41
1
41
1
41
1
41
1
41
1
41
1
41
1
41
1
41
1
41
1
41
1
41
1
41
1
41
1
41
1
10
-70
20
-50
30
0
10
-71.193861022663341
20
-49.935250722829075
30
0
10
-73.417618458130136
20
-49.78893957315681
30
0
10
-76.261361181764869
20
-49.519035111852759
30
0
10
-79.065212497136244
20
-49.057874895379683
30
0
10
-80.933088876766533
20
-48.313039640394486
30
0
10
-81.2340518424066
20
-47.405381701012303
30
0
10
-80.14168817894722
20
-46.349447704874684
30
0
10
-77.979134496604601
20
-45.172903928625381
30
0
10
-75.266345190211212
20
-43.920805088335932
30
0
10
-72.609688948240276
20
-42.64644821147661
30
0
10
-70.944762229681459
20
-41.617306234000935
30
0
10
-70.225617300060051
20
-40.873377018645726
30
0
10
-70.025521354247815
20
-40.387688069872851
30
0
10
-70.001675068411927
20
-40.135438171261029
30
0
10
-69.999999999999986
20
-40.105041475128338
30
0
0
ARC
5
116
100
AcDbEntity
8
0
100
AcDbCircle
10
-60
20
-50.000000000000007
30
0
40
10
210
0
220
0
230
1
100
AcDbArc
50
180
51
270
0
LINE
5
117
100
AcDbEntity
8
0
100
AcDbLine
10
-60
20
-60
30
0
11
-40
21
-60
31
0
0
ARC
5
118
100
AcDbEntity
8
0
100
AcDbCircle
10
-39.999999999999993
20
-50.000000000000007
30
0
40
9.9999999999999911
210
0
220
0
230
1
100
AcDbArc
50
-90.000000000000057
51
0
0
SPLINE
5
119
100
AcDbEntity
8
0
100
AcDbSpline
70
4
71
5
72
21
73
15
74
0
42
0.000000001
43
0.0000000001
44
0.0000000001
40
0
40
0
40
0
40
0
40
0
40
0
40
0.050000000000000003
40
0.10000000000000001
40
0.15000000000000002
40
0.20000000000000001
40
0.25
40
0.29999999999999999
40
0.34999999999999998
40
0.39999999999999997
40
0.44999999999999996
40
0.49743791954076083
40
0.49743791954076083
40
0.49743791954076083
40
0.49743791954076083
40
0.49743791954076083
40
0.49743791954076083
41
1
41
1
41
1
41
1
41
1
41
1
41
1
41
1
41
1
41
1
41
1
41
1
41
1
41
1
41
1
10
-30
20
-50
30
0
10
-28.692787244907052
20
-49.910775361367364
30
0
10
-26.261522197221836
20
-49.718357289014712
30
0
10
-23.164111073839916
20
-49.38782354317933
30
0
10
-20.137644108110479
20
-48.862958735066059
30
0
10
-18.180996113584481
20
-48.0668126342973
30
0
10
-17.965398065344143
20
-47.134772721054325
30
0
10
-19.284096790212221
20
-46.077936007821108
30
0
10
-21.751124986763934
20
-44.917810480247923
30
0
10
-24.757932714150989
20
-43.689053159847688
30
0
10
-27.580915134129231
20
-42.445335407299424
30
0
10
-29.198978665182615
20
-41.463059395187983
30
0
10
-29.841167244929352
20
-40.749908319586879
30
0
10
-29.991801109061292
20
-40.290226943993957
30
0
10
-30
20
-40.069370628331207
30
0
0
LINE
5
120
100
AcDbEntity
8
0
100
AcDbLine
10
-30
20
-40.069370628331207
30
0
11
-30
21
-39.999999999999979
31
0
0
SPLINE
5
121
100
AcDbEntity
8
0
100
AcDbSpline
70
4
71
5
72
21
73
15
74
0
42
0.000000001
43
0.0000000001
44
0.0000000001
40
0.50042297681299663
40
0.50042297681299663
40
0.50042297681299663
40
0.50042297681299663
40
0.50042297681299663
40
0.50042297681299663
40
0.54999999999999993
40
0.59999999999999998
40
0.65000000000000002
40
0.70000000000000007
40
0.75000000000000011
40
0.80000000000000016
40
0.8500000000000002
40
0.90000000000000024
40
0.95000000000000029
40
1
40
1
40
1
40
1
40
1
40
1
41
1
41
1
41
1
41
1
41
1
41
1
41
1
41
1
41
1
41
1
41
1
41
1
41
1
41
1
41
1
10
-30
20
-39.999999999999979
30
0
10
-29.991430831506328
20
-39.769962757008031
30
0
10
-29.831294990221231
20
-39.314450849907615
30
0
10
-29.160305199120025
20
-38.651077364675494
30
0
10
-27.488398913522978
20
-37.808703548485703
30
0
10
-24.604424676348838
20
-36.815342138082883
30
0
10
-21.584400843647348
20
-35.860879487063364
30
0
10
-19.129434671931701
20
-34.924215441453399
30
0
10
-17.839878870868876
20
-33.984660042078453
30
0
10
-18.089719262894782
20
-33.028875594135798
30
0
10
-20.080622525785788
20
-32.049249889900501
30
0
10
-23.131903261566261
20
-31.243670763242012
30
0
10
-26.246127490446142
20
-30.626763203351672
30
0
10
-28.68779024837594
20
-30.209859699456068
30
0
10
-30
20
-30
30
0
0
ENDSEC
0
SECTION
2
OBJECTS
0
DICTIONARY
5
C
100
AcDbDictionary
3
ACAD_GROUP
350
D
3
ACAD_MLINESTYLE
350
17
0
DICTIONARY
5
D
100
AcDbDictionary
0
DICTIONARY
5
1A
330
C
100
AcDbDictionary
0
DICTIONARY
5
17
100
AcDbDictionary
0
ENDSEC
0
EOF
